<mxfile host="Electron" agent="Mozilla/5.0 (Windows NT 10.0; Win64; x64) AppleWebKit/537.36 (KHTML, like Gecko) draw.io/24.7.5 Chrome/126.0.6478.183 Electron/31.3.0 Safari/537.36" version="24.7.5" pages="3">
  <diagram name="PÃ¡gina-1" id="LgSZIwPZHX3n8RIb2UHG">
    <mxGraphModel dx="1050" dy="669" grid="1" gridSize="10" guides="1" tooltips="1" connect="1" arrows="1" fold="1" page="1" pageScale="1" pageWidth="827" pageHeight="1169" math="0" shadow="0">
      <root>
        <mxCell id="0" />
        <mxCell id="1" parent="0" />
        <mxCell id="OlrdK4PVdILElhbvQsTH-1" value="" style="shape=crossbar;whiteSpace=wrap;html=1;rounded=1;" parent="1" vertex="1">
          <mxGeometry x="160" y="310" width="480" height="20" as="geometry" />
        </mxCell>
        <mxCell id="OlrdK4PVdILElhbvQsTH-3" value="" style="endArrow=none;html=1;rounded=0;" parent="1" edge="1">
          <mxGeometry width="50" height="50" relative="1" as="geometry">
            <mxPoint x="200" y="335" as="sourcePoint" />
            <mxPoint x="200" y="305" as="targetPoint" />
          </mxGeometry>
        </mxCell>
        <mxCell id="OlrdK4PVdILElhbvQsTH-4" value="" style="endArrow=none;html=1;rounded=0;" parent="1" edge="1">
          <mxGeometry width="50" height="50" relative="1" as="geometry">
            <mxPoint x="240" y="335" as="sourcePoint" />
            <mxPoint x="240" y="305" as="targetPoint" />
          </mxGeometry>
        </mxCell>
        <mxCell id="OlrdK4PVdILElhbvQsTH-5" value="" style="endArrow=none;html=1;rounded=0;" parent="1" edge="1">
          <mxGeometry width="50" height="50" relative="1" as="geometry">
            <mxPoint x="280" y="335" as="sourcePoint" />
            <mxPoint x="280" y="305" as="targetPoint" />
          </mxGeometry>
        </mxCell>
        <mxCell id="OlrdK4PVdILElhbvQsTH-6" value="" style="endArrow=none;html=1;rounded=0;" parent="1" edge="1">
          <mxGeometry width="50" height="50" relative="1" as="geometry">
            <mxPoint x="320" y="335" as="sourcePoint" />
            <mxPoint x="320" y="305" as="targetPoint" />
          </mxGeometry>
        </mxCell>
        <mxCell id="OlrdK4PVdILElhbvQsTH-7" value="" style="endArrow=none;html=1;rounded=0;" parent="1" edge="1">
          <mxGeometry width="50" height="50" relative="1" as="geometry">
            <mxPoint x="360" y="335" as="sourcePoint" />
            <mxPoint x="360" y="305" as="targetPoint" />
          </mxGeometry>
        </mxCell>
        <mxCell id="OlrdK4PVdILElhbvQsTH-8" value="" style="endArrow=none;html=1;rounded=0;" parent="1" edge="1">
          <mxGeometry width="50" height="50" relative="1" as="geometry">
            <mxPoint x="400" y="335" as="sourcePoint" />
            <mxPoint x="400" y="305" as="targetPoint" />
          </mxGeometry>
        </mxCell>
        <mxCell id="OlrdK4PVdILElhbvQsTH-9" value="" style="endArrow=none;html=1;rounded=0;" parent="1" edge="1">
          <mxGeometry width="50" height="50" relative="1" as="geometry">
            <mxPoint x="440" y="335" as="sourcePoint" />
            <mxPoint x="440" y="305" as="targetPoint" />
          </mxGeometry>
        </mxCell>
        <mxCell id="OlrdK4PVdILElhbvQsTH-10" value="" style="endArrow=none;html=1;rounded=0;" parent="1" edge="1">
          <mxGeometry width="50" height="50" relative="1" as="geometry">
            <mxPoint x="480" y="335" as="sourcePoint" />
            <mxPoint x="480" y="305" as="targetPoint" />
          </mxGeometry>
        </mxCell>
        <mxCell id="OlrdK4PVdILElhbvQsTH-11" value="" style="endArrow=none;html=1;rounded=0;" parent="1" edge="1">
          <mxGeometry width="50" height="50" relative="1" as="geometry">
            <mxPoint x="520" y="335" as="sourcePoint" />
            <mxPoint x="520" y="305" as="targetPoint" />
          </mxGeometry>
        </mxCell>
        <mxCell id="OlrdK4PVdILElhbvQsTH-12" value="" style="endArrow=none;html=1;rounded=0;" parent="1" edge="1">
          <mxGeometry width="50" height="50" relative="1" as="geometry">
            <mxPoint x="560" y="335" as="sourcePoint" />
            <mxPoint x="560" y="305" as="targetPoint" />
          </mxGeometry>
        </mxCell>
        <mxCell id="OlrdK4PVdILElhbvQsTH-14" value="&lt;font face=&quot;Lucida Console&quot;&gt;B&lt;/font&gt;" style="rounded=1;whiteSpace=wrap;html=1;fillColor=#ffe6cc;strokeColor=#d79b00;" parent="1" vertex="1">
          <mxGeometry x="160" y="200" width="40" height="120" as="geometry" />
        </mxCell>
        <mxCell id="OlrdK4PVdILElhbvQsTH-15" value="&lt;font face=&quot;Lucida Console&quot;&gt;C&lt;/font&gt;" style="rounded=1;whiteSpace=wrap;html=1;fillColor=#f8cecc;strokeColor=#b85450;" parent="1" vertex="1">
          <mxGeometry x="200" y="200" width="40" height="120" as="geometry" />
        </mxCell>
        <mxCell id="OlrdK4PVdILElhbvQsTH-16" value="10" style="text;html=1;align=center;verticalAlign=middle;whiteSpace=wrap;rounded=0;" parent="1" vertex="1">
          <mxGeometry x="190" y="330" width="20" height="30" as="geometry" />
        </mxCell>
        <mxCell id="OlrdK4PVdILElhbvQsTH-18" value="20" style="text;html=1;align=center;verticalAlign=middle;whiteSpace=wrap;rounded=0;" parent="1" vertex="1">
          <mxGeometry x="230" y="330" width="20" height="30" as="geometry" />
        </mxCell>
        <mxCell id="OlrdK4PVdILElhbvQsTH-19" value="30" style="text;html=1;align=center;verticalAlign=middle;whiteSpace=wrap;rounded=0;" parent="1" vertex="1">
          <mxGeometry x="270" y="330" width="20" height="30" as="geometry" />
        </mxCell>
        <mxCell id="OlrdK4PVdILElhbvQsTH-20" value="40" style="text;html=1;align=center;verticalAlign=middle;whiteSpace=wrap;rounded=0;" parent="1" vertex="1">
          <mxGeometry x="310" y="330" width="20" height="30" as="geometry" />
        </mxCell>
        <mxCell id="OlrdK4PVdILElhbvQsTH-21" value="50" style="text;html=1;align=center;verticalAlign=middle;whiteSpace=wrap;rounded=0;" parent="1" vertex="1">
          <mxGeometry x="350" y="330" width="20" height="30" as="geometry" />
        </mxCell>
        <mxCell id="OlrdK4PVdILElhbvQsTH-22" value="60" style="text;html=1;align=center;verticalAlign=middle;whiteSpace=wrap;rounded=0;" parent="1" vertex="1">
          <mxGeometry x="390" y="330" width="20" height="30" as="geometry" />
        </mxCell>
        <mxCell id="OlrdK4PVdILElhbvQsTH-23" value="70" style="text;html=1;align=center;verticalAlign=middle;whiteSpace=wrap;rounded=0;" parent="1" vertex="1">
          <mxGeometry x="430" y="330" width="20" height="30" as="geometry" />
        </mxCell>
        <mxCell id="OlrdK4PVdILElhbvQsTH-24" value="80" style="text;html=1;align=center;verticalAlign=middle;whiteSpace=wrap;rounded=0;" parent="1" vertex="1">
          <mxGeometry x="470" y="330" width="20" height="30" as="geometry" />
        </mxCell>
        <mxCell id="OlrdK4PVdILElhbvQsTH-25" value="90" style="text;html=1;align=center;verticalAlign=middle;whiteSpace=wrap;rounded=0;" parent="1" vertex="1">
          <mxGeometry x="510" y="330" width="20" height="30" as="geometry" />
        </mxCell>
        <mxCell id="OlrdK4PVdILElhbvQsTH-26" value="100" style="text;html=1;align=center;verticalAlign=middle;whiteSpace=wrap;rounded=0;" parent="1" vertex="1">
          <mxGeometry x="550" y="330" width="20" height="30" as="geometry" />
        </mxCell>
        <mxCell id="OlrdK4PVdILElhbvQsTH-27" value="0" style="text;html=1;align=center;verticalAlign=middle;whiteSpace=wrap;rounded=0;" parent="1" vertex="1">
          <mxGeometry x="150" y="323" width="20" height="30" as="geometry" />
        </mxCell>
        <mxCell id="OlrdK4PVdILElhbvQsTH-28" value="" style="endArrow=none;html=1;rounded=0;" parent="1" edge="1">
          <mxGeometry width="50" height="50" relative="1" as="geometry">
            <mxPoint x="600" y="335" as="sourcePoint" />
            <mxPoint x="600" y="305" as="targetPoint" />
          </mxGeometry>
        </mxCell>
        <mxCell id="OlrdK4PVdILElhbvQsTH-30" value="110" style="text;html=1;align=center;verticalAlign=middle;whiteSpace=wrap;rounded=0;" parent="1" vertex="1">
          <mxGeometry x="590" y="330" width="20" height="30" as="geometry" />
        </mxCell>
        <mxCell id="OlrdK4PVdILElhbvQsTH-31" value="120" style="text;html=1;align=center;verticalAlign=middle;whiteSpace=wrap;rounded=0;" parent="1" vertex="1">
          <mxGeometry x="630" y="323" width="20" height="30" as="geometry" />
        </mxCell>
        <mxCell id="OlrdK4PVdILElhbvQsTH-13" value="&lt;font face=&quot;Lucida Console&quot;&gt;A&lt;/font&gt;" style="rounded=1;whiteSpace=wrap;html=1;fillColor=#fff2cc;strokeColor=#d6b656;" parent="1" vertex="1">
          <mxGeometry x="240" y="200" width="400" height="120" as="geometry" />
        </mxCell>
        <mxCell id="OlrdK4PVdILElhbvQsTH-32" value="" style="shape=crossbar;whiteSpace=wrap;html=1;rounded=1;" parent="1" vertex="1">
          <mxGeometry x="162.5" y="600" width="480" height="20" as="geometry" />
        </mxCell>
        <mxCell id="OlrdK4PVdILElhbvQsTH-33" value="" style="endArrow=none;html=1;rounded=0;" parent="1" edge="1">
          <mxGeometry width="50" height="50" relative="1" as="geometry">
            <mxPoint x="202.5" y="625" as="sourcePoint" />
            <mxPoint x="202.5" y="595" as="targetPoint" />
          </mxGeometry>
        </mxCell>
        <mxCell id="OlrdK4PVdILElhbvQsTH-34" value="" style="endArrow=none;html=1;rounded=0;" parent="1" edge="1">
          <mxGeometry width="50" height="50" relative="1" as="geometry">
            <mxPoint x="242.5" y="625" as="sourcePoint" />
            <mxPoint x="242.5" y="595" as="targetPoint" />
          </mxGeometry>
        </mxCell>
        <mxCell id="OlrdK4PVdILElhbvQsTH-35" value="" style="endArrow=none;html=1;rounded=0;" parent="1" edge="1">
          <mxGeometry width="50" height="50" relative="1" as="geometry">
            <mxPoint x="282.5" y="625" as="sourcePoint" />
            <mxPoint x="282.5" y="595" as="targetPoint" />
          </mxGeometry>
        </mxCell>
        <mxCell id="OlrdK4PVdILElhbvQsTH-36" value="" style="endArrow=none;html=1;rounded=0;" parent="1" edge="1">
          <mxGeometry width="50" height="50" relative="1" as="geometry">
            <mxPoint x="322.5" y="625" as="sourcePoint" />
            <mxPoint x="322.5" y="595" as="targetPoint" />
          </mxGeometry>
        </mxCell>
        <mxCell id="OlrdK4PVdILElhbvQsTH-37" value="" style="endArrow=none;html=1;rounded=0;" parent="1" edge="1">
          <mxGeometry width="50" height="50" relative="1" as="geometry">
            <mxPoint x="362.5" y="625" as="sourcePoint" />
            <mxPoint x="362.5" y="595" as="targetPoint" />
          </mxGeometry>
        </mxCell>
        <mxCell id="OlrdK4PVdILElhbvQsTH-38" value="" style="endArrow=none;html=1;rounded=0;" parent="1" edge="1">
          <mxGeometry width="50" height="50" relative="1" as="geometry">
            <mxPoint x="402.5" y="625" as="sourcePoint" />
            <mxPoint x="402.5" y="595" as="targetPoint" />
          </mxGeometry>
        </mxCell>
        <mxCell id="OlrdK4PVdILElhbvQsTH-39" value="" style="endArrow=none;html=1;rounded=0;" parent="1" edge="1">
          <mxGeometry width="50" height="50" relative="1" as="geometry">
            <mxPoint x="442.5" y="625" as="sourcePoint" />
            <mxPoint x="442.5" y="595" as="targetPoint" />
          </mxGeometry>
        </mxCell>
        <mxCell id="OlrdK4PVdILElhbvQsTH-40" value="" style="endArrow=none;html=1;rounded=0;" parent="1" edge="1">
          <mxGeometry width="50" height="50" relative="1" as="geometry">
            <mxPoint x="482.5" y="625" as="sourcePoint" />
            <mxPoint x="482.5" y="595" as="targetPoint" />
          </mxGeometry>
        </mxCell>
        <mxCell id="OlrdK4PVdILElhbvQsTH-41" value="" style="endArrow=none;html=1;rounded=0;" parent="1" edge="1">
          <mxGeometry width="50" height="50" relative="1" as="geometry">
            <mxPoint x="522.5" y="625" as="sourcePoint" />
            <mxPoint x="522.5" y="595" as="targetPoint" />
          </mxGeometry>
        </mxCell>
        <mxCell id="OlrdK4PVdILElhbvQsTH-42" value="" style="endArrow=none;html=1;rounded=0;" parent="1" edge="1">
          <mxGeometry width="50" height="50" relative="1" as="geometry">
            <mxPoint x="562.5" y="625" as="sourcePoint" />
            <mxPoint x="562.5" y="595" as="targetPoint" />
          </mxGeometry>
        </mxCell>
        <mxCell id="OlrdK4PVdILElhbvQsTH-43" value="&lt;font face=&quot;Lucida Console&quot;&gt;B&lt;/font&gt;" style="rounded=1;whiteSpace=wrap;html=1;fillColor=#ffe6cc;strokeColor=#d79b00;" parent="1" vertex="1">
          <mxGeometry x="200" y="490" width="40" height="120" as="geometry" />
        </mxCell>
        <mxCell id="OlrdK4PVdILElhbvQsTH-44" value="&lt;font face=&quot;Lucida Console&quot;&gt;C&lt;/font&gt;" style="rounded=1;whiteSpace=wrap;html=1;fillColor=#f8cecc;strokeColor=#b85450;" parent="1" vertex="1">
          <mxGeometry x="240" y="490" width="40" height="120" as="geometry" />
        </mxCell>
        <mxCell id="OlrdK4PVdILElhbvQsTH-45" value="10" style="text;html=1;align=center;verticalAlign=middle;whiteSpace=wrap;rounded=0;" parent="1" vertex="1">
          <mxGeometry x="192.5" y="620" width="20" height="30" as="geometry" />
        </mxCell>
        <mxCell id="OlrdK4PVdILElhbvQsTH-46" value="20" style="text;html=1;align=center;verticalAlign=middle;whiteSpace=wrap;rounded=0;" parent="1" vertex="1">
          <mxGeometry x="232.5" y="620" width="20" height="30" as="geometry" />
        </mxCell>
        <mxCell id="OlrdK4PVdILElhbvQsTH-47" value="30" style="text;html=1;align=center;verticalAlign=middle;whiteSpace=wrap;rounded=0;" parent="1" vertex="1">
          <mxGeometry x="272.5" y="620" width="20" height="30" as="geometry" />
        </mxCell>
        <mxCell id="OlrdK4PVdILElhbvQsTH-48" value="40" style="text;html=1;align=center;verticalAlign=middle;whiteSpace=wrap;rounded=0;" parent="1" vertex="1">
          <mxGeometry x="312.5" y="620" width="20" height="30" as="geometry" />
        </mxCell>
        <mxCell id="OlrdK4PVdILElhbvQsTH-49" value="50" style="text;html=1;align=center;verticalAlign=middle;whiteSpace=wrap;rounded=0;" parent="1" vertex="1">
          <mxGeometry x="352.5" y="620" width="20" height="30" as="geometry" />
        </mxCell>
        <mxCell id="OlrdK4PVdILElhbvQsTH-50" value="60" style="text;html=1;align=center;verticalAlign=middle;whiteSpace=wrap;rounded=0;" parent="1" vertex="1">
          <mxGeometry x="392.5" y="620" width="20" height="30" as="geometry" />
        </mxCell>
        <mxCell id="OlrdK4PVdILElhbvQsTH-51" value="70" style="text;html=1;align=center;verticalAlign=middle;whiteSpace=wrap;rounded=0;" parent="1" vertex="1">
          <mxGeometry x="432.5" y="620" width="20" height="30" as="geometry" />
        </mxCell>
        <mxCell id="OlrdK4PVdILElhbvQsTH-52" value="80" style="text;html=1;align=center;verticalAlign=middle;whiteSpace=wrap;rounded=0;" parent="1" vertex="1">
          <mxGeometry x="472.5" y="620" width="20" height="30" as="geometry" />
        </mxCell>
        <mxCell id="OlrdK4PVdILElhbvQsTH-53" value="90" style="text;html=1;align=center;verticalAlign=middle;whiteSpace=wrap;rounded=0;" parent="1" vertex="1">
          <mxGeometry x="512.5" y="620" width="20" height="30" as="geometry" />
        </mxCell>
        <mxCell id="OlrdK4PVdILElhbvQsTH-54" value="100" style="text;html=1;align=center;verticalAlign=middle;whiteSpace=wrap;rounded=0;" parent="1" vertex="1">
          <mxGeometry x="552.5" y="620" width="20" height="30" as="geometry" />
        </mxCell>
        <mxCell id="OlrdK4PVdILElhbvQsTH-55" value="0" style="text;html=1;align=center;verticalAlign=middle;whiteSpace=wrap;rounded=0;" parent="1" vertex="1">
          <mxGeometry x="152.5" y="613" width="20" height="30" as="geometry" />
        </mxCell>
        <mxCell id="OlrdK4PVdILElhbvQsTH-56" value="" style="endArrow=none;html=1;rounded=0;" parent="1" edge="1">
          <mxGeometry width="50" height="50" relative="1" as="geometry">
            <mxPoint x="602.5" y="625" as="sourcePoint" />
            <mxPoint x="602.5" y="595" as="targetPoint" />
          </mxGeometry>
        </mxCell>
        <mxCell id="OlrdK4PVdILElhbvQsTH-57" value="110" style="text;html=1;align=center;verticalAlign=middle;whiteSpace=wrap;rounded=0;" parent="1" vertex="1">
          <mxGeometry x="592.5" y="620" width="20" height="30" as="geometry" />
        </mxCell>
        <mxCell id="OlrdK4PVdILElhbvQsTH-58" value="120" style="text;html=1;align=center;verticalAlign=middle;whiteSpace=wrap;rounded=0;" parent="1" vertex="1">
          <mxGeometry x="632.5" y="613" width="20" height="30" as="geometry" />
        </mxCell>
        <mxCell id="OlrdK4PVdILElhbvQsTH-59" value="&lt;font face=&quot;Lucida Console&quot;&gt;A&lt;/font&gt;" style="rounded=1;whiteSpace=wrap;html=1;fillColor=#fff2cc;strokeColor=#d6b656;" parent="1" vertex="1">
          <mxGeometry x="162.5" y="490" width="37.5" height="120" as="geometry" />
        </mxCell>
        <mxCell id="OlrdK4PVdILElhbvQsTH-60" value="" style="endArrow=classic;html=1;rounded=0;" parent="1" edge="1">
          <mxGeometry width="50" height="50" relative="1" as="geometry">
            <mxPoint x="202.5" y="450" as="sourcePoint" />
            <mxPoint x="202.5" y="480" as="targetPoint" />
          </mxGeometry>
        </mxCell>
        <mxCell id="OlrdK4PVdILElhbvQsTH-61" value="Llegada de &lt;font face=&quot;Lucida Console&quot;&gt;B,C&lt;/font&gt;" style="text;html=1;align=center;verticalAlign=middle;resizable=0;points=[];autosize=1;strokeColor=#666666;fillColor=#f5f5f5;fontColor=#333333;" parent="1" vertex="1">
          <mxGeometry x="147.5" y="410" width="110" height="30" as="geometry" />
        </mxCell>
        <mxCell id="UTaSmqQbQFND8Rc4DFwr-1" value="&lt;font face=&quot;Lucida Console&quot;&gt;A&lt;/font&gt;" style="rounded=1;whiteSpace=wrap;html=1;fillColor=#fff2cc;strokeColor=#d6b656;" vertex="1" parent="1">
          <mxGeometry x="280" y="490" width="360" height="120" as="geometry" />
        </mxCell>
        <mxCell id="UTaSmqQbQFND8Rc4DFwr-2" value="" style="shape=crossbar;whiteSpace=wrap;html=1;rounded=1;" vertex="1" parent="1">
          <mxGeometry x="160.5" y="820" width="299.5" height="20" as="geometry" />
        </mxCell>
        <mxCell id="UTaSmqQbQFND8Rc4DFwr-4" value="" style="endArrow=none;html=1;rounded=0;" edge="1" parent="1">
          <mxGeometry width="50" height="50" relative="1" as="geometry">
            <mxPoint x="259.5" y="845" as="sourcePoint" />
            <mxPoint x="259.5" y="815" as="targetPoint" />
          </mxGeometry>
        </mxCell>
        <mxCell id="UTaSmqQbQFND8Rc4DFwr-6" value="" style="endArrow=none;html=1;rounded=0;" edge="1" parent="1">
          <mxGeometry width="50" height="50" relative="1" as="geometry">
            <mxPoint x="359.42" y="845" as="sourcePoint" />
            <mxPoint x="359.42" y="815" as="targetPoint" />
          </mxGeometry>
        </mxCell>
        <mxCell id="UTaSmqQbQFND8Rc4DFwr-13" value="&lt;font face=&quot;Lucida Console&quot;&gt;B&lt;/font&gt;" style="rounded=1;whiteSpace=wrap;html=1;fillColor=#ffe6cc;strokeColor=#d79b00;" vertex="1" parent="1">
          <mxGeometry x="259.37" y="710" width="100.63" height="120" as="geometry" />
        </mxCell>
        <mxCell id="UTaSmqQbQFND8Rc4DFwr-14" value="&lt;font face=&quot;Lucida Console&quot;&gt;C&lt;/font&gt;" style="rounded=1;whiteSpace=wrap;html=1;fillColor=#f8cecc;strokeColor=#b85450;" vertex="1" parent="1">
          <mxGeometry x="359.99" y="710" width="100.01" height="120" as="geometry" />
        </mxCell>
        <mxCell id="UTaSmqQbQFND8Rc4DFwr-16" value="5" style="text;html=1;align=center;verticalAlign=middle;whiteSpace=wrap;rounded=0;" vertex="1" parent="1">
          <mxGeometry x="249.75" y="840" width="20" height="30" as="geometry" />
        </mxCell>
        <mxCell id="UTaSmqQbQFND8Rc4DFwr-18" value="10" style="text;html=1;align=center;verticalAlign=middle;whiteSpace=wrap;rounded=0;" vertex="1" parent="1">
          <mxGeometry x="350" y="840" width="20" height="30" as="geometry" />
        </mxCell>
        <mxCell id="UTaSmqQbQFND8Rc4DFwr-20" value="15" style="text;html=1;align=center;verticalAlign=middle;whiteSpace=wrap;rounded=0;" vertex="1" parent="1">
          <mxGeometry x="450" y="840" width="20" height="30" as="geometry" />
        </mxCell>
        <mxCell id="UTaSmqQbQFND8Rc4DFwr-25" value="0" style="text;html=1;align=center;verticalAlign=middle;whiteSpace=wrap;rounded=0;" vertex="1" parent="1">
          <mxGeometry x="150.5" y="833" width="20" height="30" as="geometry" />
        </mxCell>
        <mxCell id="UTaSmqQbQFND8Rc4DFwr-29" value="&lt;font face=&quot;Lucida Console&quot;&gt;A&lt;/font&gt;" style="rounded=1;whiteSpace=wrap;html=1;fillColor=#fff2cc;strokeColor=#d6b656;" vertex="1" parent="1">
          <mxGeometry x="160.75" y="710" width="99.25" height="120" as="geometry" />
        </mxCell>
        <mxCell id="UTaSmqQbQFND8Rc4DFwr-30" value="" style="shape=crossbar;whiteSpace=wrap;html=1;rounded=1;" vertex="1" parent="1">
          <mxGeometry x="159" y="990" width="301" height="20" as="geometry" />
        </mxCell>
        <mxCell id="UTaSmqQbQFND8Rc4DFwr-32" value="" style="endArrow=none;html=1;rounded=0;" edge="1" parent="1">
          <mxGeometry width="50" height="50" relative="1" as="geometry">
            <mxPoint x="259.75" y="1015" as="sourcePoint" />
            <mxPoint x="259.75" y="985" as="targetPoint" />
          </mxGeometry>
        </mxCell>
        <mxCell id="UTaSmqQbQFND8Rc4DFwr-34" value="" style="endArrow=none;html=1;rounded=0;" edge="1" parent="1">
          <mxGeometry width="50" height="50" relative="1" as="geometry">
            <mxPoint x="360" y="1015" as="sourcePoint" />
            <mxPoint x="360" y="985" as="targetPoint" />
          </mxGeometry>
        </mxCell>
        <mxCell id="UTaSmqQbQFND8Rc4DFwr-38" value="&lt;font face=&quot;Lucida Console&quot;&gt;B&lt;/font&gt;" style="rounded=1;whiteSpace=wrap;html=1;fillColor=#ffe6cc;strokeColor=#d79b00;" vertex="1" parent="1">
          <mxGeometry x="180.63" y="880" width="19.37" height="120" as="geometry" />
        </mxCell>
        <mxCell id="UTaSmqQbQFND8Rc4DFwr-39" value="&lt;font face=&quot;Lucida Console&quot;&gt;C&lt;/font&gt;" style="rounded=1;whiteSpace=wrap;html=1;fillColor=#f8cecc;strokeColor=#b85450;" vertex="1" parent="1">
          <mxGeometry x="200.5" y="880" width="19.5" height="120" as="geometry" />
        </mxCell>
        <mxCell id="UTaSmqQbQFND8Rc4DFwr-40" value="5" style="text;html=1;align=center;verticalAlign=middle;whiteSpace=wrap;rounded=0;" vertex="1" parent="1">
          <mxGeometry x="249.75" y="1010" width="20" height="30" as="geometry" />
        </mxCell>
        <mxCell id="UTaSmqQbQFND8Rc4DFwr-41" value="10" style="text;html=1;align=center;verticalAlign=middle;whiteSpace=wrap;rounded=0;" vertex="1" parent="1">
          <mxGeometry x="350" y="1010" width="20" height="30" as="geometry" />
        </mxCell>
        <mxCell id="UTaSmqQbQFND8Rc4DFwr-42" value="15" style="text;html=1;align=center;verticalAlign=middle;whiteSpace=wrap;rounded=0;" vertex="1" parent="1">
          <mxGeometry x="450" y="1010" width="20" height="30" as="geometry" />
        </mxCell>
        <mxCell id="UTaSmqQbQFND8Rc4DFwr-43" value="0" style="text;html=1;align=center;verticalAlign=middle;whiteSpace=wrap;rounded=0;" vertex="1" parent="1">
          <mxGeometry x="149" y="1003" width="20" height="30" as="geometry" />
        </mxCell>
        <mxCell id="UTaSmqQbQFND8Rc4DFwr-44" value="&lt;font face=&quot;Lucida Console&quot;&gt;A&lt;/font&gt;" style="rounded=1;whiteSpace=wrap;html=1;fillColor=#fff2cc;strokeColor=#d6b656;" vertex="1" parent="1">
          <mxGeometry x="159.25" y="880" width="20.75" height="120" as="geometry" />
        </mxCell>
        <mxCell id="UTaSmqQbQFND8Rc4DFwr-45" value="&lt;font face=&quot;Lucida Console&quot;&gt;A&lt;/font&gt;" style="rounded=1;whiteSpace=wrap;html=1;fillColor=#fff2cc;strokeColor=#d6b656;" vertex="1" parent="1">
          <mxGeometry x="220" y="880" width="20.75" height="120" as="geometry" />
        </mxCell>
        <mxCell id="UTaSmqQbQFND8Rc4DFwr-48" value="&lt;font face=&quot;Lucida Console&quot;&gt;B&lt;/font&gt;" style="rounded=1;whiteSpace=wrap;html=1;fillColor=#ffe6cc;strokeColor=#d79b00;" vertex="1" parent="1">
          <mxGeometry x="240.75" y="880" width="19.37" height="120" as="geometry" />
        </mxCell>
        <mxCell id="UTaSmqQbQFND8Rc4DFwr-49" value="&lt;font face=&quot;Lucida Console&quot;&gt;C&lt;/font&gt;" style="rounded=1;whiteSpace=wrap;html=1;fillColor=#f8cecc;strokeColor=#b85450;" vertex="1" parent="1">
          <mxGeometry x="260.12" y="880" width="19.5" height="120" as="geometry" />
        </mxCell>
        <mxCell id="UTaSmqQbQFND8Rc4DFwr-50" value="&lt;font face=&quot;Lucida Console&quot;&gt;A&lt;/font&gt;" style="rounded=1;whiteSpace=wrap;html=1;fillColor=#fff2cc;strokeColor=#d6b656;" vertex="1" parent="1">
          <mxGeometry x="279.62" y="880" width="20.75" height="120" as="geometry" />
        </mxCell>
        <mxCell id="UTaSmqQbQFND8Rc4DFwr-51" value="&lt;font face=&quot;Lucida Console&quot;&gt;B&lt;/font&gt;" style="rounded=1;whiteSpace=wrap;html=1;fillColor=#ffe6cc;strokeColor=#d79b00;" vertex="1" parent="1">
          <mxGeometry x="300.37" y="880" width="19.37" height="120" as="geometry" />
        </mxCell>
        <mxCell id="UTaSmqQbQFND8Rc4DFwr-52" value="&lt;font face=&quot;Lucida Console&quot;&gt;C&lt;/font&gt;" style="rounded=1;whiteSpace=wrap;html=1;fillColor=#f8cecc;strokeColor=#b85450;" vertex="1" parent="1">
          <mxGeometry x="319.74" y="880" width="19.5" height="120" as="geometry" />
        </mxCell>
        <mxCell id="UTaSmqQbQFND8Rc4DFwr-53" value="&lt;font face=&quot;Lucida Console&quot;&gt;A&lt;/font&gt;" style="rounded=1;whiteSpace=wrap;html=1;fillColor=#fff2cc;strokeColor=#d6b656;" vertex="1" parent="1">
          <mxGeometry x="339.24" y="880" width="20.75" height="120" as="geometry" />
        </mxCell>
        <mxCell id="UTaSmqQbQFND8Rc4DFwr-54" value="&lt;font face=&quot;Lucida Console&quot;&gt;B&lt;/font&gt;" style="rounded=1;whiteSpace=wrap;html=1;fillColor=#ffe6cc;strokeColor=#d79b00;" vertex="1" parent="1">
          <mxGeometry x="360" y="880" width="19.37" height="120" as="geometry" />
        </mxCell>
        <mxCell id="UTaSmqQbQFND8Rc4DFwr-55" value="&lt;font face=&quot;Lucida Console&quot;&gt;C&lt;/font&gt;" style="rounded=1;whiteSpace=wrap;html=1;fillColor=#f8cecc;strokeColor=#b85450;" vertex="1" parent="1">
          <mxGeometry x="379.37" y="880" width="19.5" height="120" as="geometry" />
        </mxCell>
        <mxCell id="UTaSmqQbQFND8Rc4DFwr-56" value="&lt;font face=&quot;Lucida Console&quot;&gt;A&lt;/font&gt;" style="rounded=1;whiteSpace=wrap;html=1;fillColor=#fff2cc;strokeColor=#d6b656;" vertex="1" parent="1">
          <mxGeometry x="398.87" y="880" width="20.75" height="120" as="geometry" />
        </mxCell>
        <mxCell id="UTaSmqQbQFND8Rc4DFwr-57" value="&lt;font face=&quot;Lucida Console&quot;&gt;B&lt;/font&gt;" style="rounded=1;whiteSpace=wrap;html=1;fillColor=#ffe6cc;strokeColor=#d79b00;" vertex="1" parent="1">
          <mxGeometry x="419.62" y="880" width="19.37" height="120" as="geometry" />
        </mxCell>
        <mxCell id="UTaSmqQbQFND8Rc4DFwr-58" value="&lt;font face=&quot;Lucida Console&quot;&gt;C&lt;/font&gt;" style="rounded=1;whiteSpace=wrap;html=1;fillColor=#f8cecc;strokeColor=#b85450;" vertex="1" parent="1">
          <mxGeometry x="438.99" y="880" width="19.5" height="120" as="geometry" />
        </mxCell>
        <mxCell id="UTaSmqQbQFND8Rc4DFwr-59" value="SJF" style="text;html=1;align=center;verticalAlign=middle;whiteSpace=wrap;rounded=0;fillColor=#f5f5f5;fontColor=#333333;strokeColor=#666666;" vertex="1" parent="1">
          <mxGeometry x="70" y="755" width="60" height="30" as="geometry" />
        </mxCell>
        <mxCell id="UTaSmqQbQFND8Rc4DFwr-60" value="Round&lt;div&gt;Robin&lt;/div&gt;" style="text;html=1;align=center;verticalAlign=middle;whiteSpace=wrap;rounded=0;fillColor=#f5f5f5;fontColor=#333333;strokeColor=#666666;" vertex="1" parent="1">
          <mxGeometry x="70" y="920" width="60" height="30" as="geometry" />
        </mxCell>
      </root>
    </mxGraphModel>
  </diagram>
  <diagram id="p7VXdnFY7JI430OSjV61" name="PÃ¡gina-2">
    <mxGraphModel dx="1050" dy="669" grid="1" gridSize="10" guides="1" tooltips="1" connect="1" arrows="1" fold="1" page="1" pageScale="1" pageWidth="827" pageHeight="1169" math="0" shadow="0">
      <root>
        <mxCell id="0" />
        <mxCell id="1" parent="0" />
        <mxCell id="XL9J9da8sM1dqb_eJxk7-1" value="&lt;div&gt;&lt;br&gt;&lt;/div&gt;&lt;div&gt;&lt;b&gt;free()&lt;/b&gt;&lt;/div&gt;" style="rounded=0;whiteSpace=wrap;html=1;fillColor=#f5f5f5;fontColor=#333333;strokeColor=#666666;" vertex="1" parent="1">
          <mxGeometry x="240" y="200" width="160" height="240" as="geometry" />
        </mxCell>
        <mxCell id="XL9J9da8sM1dqb_eJxk7-11" style="edgeStyle=orthogonalEdgeStyle;rounded=0;orthogonalLoop=1;jettySize=auto;html=1;exitX=1;exitY=0.5;exitDx=0;exitDy=0;entryX=0;entryY=0.5;entryDx=0;entryDy=0;" edge="1" parent="1" source="XL9J9da8sM1dqb_eJxk7-2" target="XL9J9da8sM1dqb_eJxk7-8">
          <mxGeometry relative="1" as="geometry" />
        </mxCell>
        <mxCell id="XL9J9da8sM1dqb_eJxk7-2" value="&lt;b&gt;CÃ³digo del Programa&lt;/b&gt;" style="rounded=0;whiteSpace=wrap;html=1;fillColor=#ffe6cc;strokeColor=#d79b00;" vertex="1" parent="1">
          <mxGeometry x="240" y="120" width="160" height="40" as="geometry" />
        </mxCell>
        <mxCell id="XL9J9da8sM1dqb_eJxk7-12" style="edgeStyle=orthogonalEdgeStyle;rounded=0;orthogonalLoop=1;jettySize=auto;html=1;exitX=1;exitY=0.5;exitDx=0;exitDy=0;entryX=0;entryY=0.5;entryDx=0;entryDy=0;" edge="1" parent="1" source="XL9J9da8sM1dqb_eJxk7-3" target="XL9J9da8sM1dqb_eJxk7-9">
          <mxGeometry relative="1" as="geometry" />
        </mxCell>
        <mxCell id="XL9J9da8sM1dqb_eJxk7-3" value="&lt;b&gt;Heap&lt;/b&gt;" style="rounded=0;whiteSpace=wrap;html=1;fillColor=#fff2cc;strokeColor=#d6b656;" vertex="1" parent="1">
          <mxGeometry x="240" y="160" width="160" height="40" as="geometry" />
        </mxCell>
        <mxCell id="XL9J9da8sM1dqb_eJxk7-13" style="edgeStyle=orthogonalEdgeStyle;rounded=0;orthogonalLoop=1;jettySize=auto;html=1;exitX=1;exitY=0.5;exitDx=0;exitDy=0;entryX=0;entryY=0.5;entryDx=0;entryDy=0;" edge="1" parent="1" source="XL9J9da8sM1dqb_eJxk7-4" target="XL9J9da8sM1dqb_eJxk7-10">
          <mxGeometry relative="1" as="geometry" />
        </mxCell>
        <mxCell id="XL9J9da8sM1dqb_eJxk7-4" value="&lt;b&gt;Stack&lt;/b&gt;" style="rounded=0;whiteSpace=wrap;html=1;fillColor=#f8cecc;strokeColor=#b85450;" vertex="1" parent="1">
          <mxGeometry x="240" y="440" width="160" height="40" as="geometry" />
        </mxCell>
        <mxCell id="XL9J9da8sM1dqb_eJxk7-6" value="" style="endArrow=classic;html=1;rounded=0;" edge="1" parent="1">
          <mxGeometry width="50" height="50" relative="1" as="geometry">
            <mxPoint x="319.5" y="200" as="sourcePoint" />
            <mxPoint x="319.5" y="290" as="targetPoint" />
          </mxGeometry>
        </mxCell>
        <mxCell id="XL9J9da8sM1dqb_eJxk7-7" value="" style="endArrow=classic;html=1;rounded=0;" edge="1" parent="1">
          <mxGeometry width="50" height="50" relative="1" as="geometry">
            <mxPoint x="319.5" y="440" as="sourcePoint" />
            <mxPoint x="319.5" y="360" as="targetPoint" />
          </mxGeometry>
        </mxCell>
        <mxCell id="XL9J9da8sM1dqb_eJxk7-8" value="CÃ³digo, fragmento estÃ¡tico, cantidad de memoria no variable durante la ejecuciÃ³n.&amp;nbsp;" style="text;html=1;align=left;verticalAlign=middle;whiteSpace=wrap;rounded=0;" vertex="1" parent="1">
          <mxGeometry x="414" y="125" width="256" height="30" as="geometry" />
        </mxCell>
        <mxCell id="XL9J9da8sM1dqb_eJxk7-9" value="Datos de malloc(), estructuras dinÃ¡micas, crece positivamente." style="text;html=1;align=left;verticalAlign=middle;whiteSpace=wrap;rounded=0;" vertex="1" parent="1">
          <mxGeometry x="414" y="165" width="256" height="30" as="geometry" />
        </mxCell>
        <mxCell id="XL9J9da8sM1dqb_eJxk7-10" value="Variables locales, argumentos de rutinas, valores de retorno, Crece negativamente." style="text;html=1;align=left;verticalAlign=middle;whiteSpace=wrap;rounded=0;" vertex="1" parent="1">
          <mxGeometry x="414" y="445" width="256" height="30" as="geometry" />
        </mxCell>
      </root>
    </mxGraphModel>
  </diagram>
  <diagram id="7J_cdJdcZVwYcruPF4wZ" name="PÃ¡gina-3">
    <mxGraphModel dx="875" dy="558" grid="1" gridSize="10" guides="1" tooltips="1" connect="1" arrows="1" fold="1" page="1" pageScale="1" pageWidth="827" pageHeight="1169" math="0" shadow="0">
      <root>
        <mxCell id="0" />
        <mxCell id="1" parent="0" />
        <mxCell id="8wGgMZ1bW5ZuI7N0N3XO-4" style="edgeStyle=orthogonalEdgeStyle;rounded=0;orthogonalLoop=1;jettySize=auto;html=1;exitX=1;exitY=0.5;exitDx=0;exitDy=0;" edge="1" parent="1" source="8wGgMZ1bW5ZuI7N0N3XO-1">
          <mxGeometry relative="1" as="geometry">
            <mxPoint x="440" y="220" as="targetPoint" />
          </mxGeometry>
        </mxCell>
        <mxCell id="8wGgMZ1bW5ZuI7N0N3XO-1" value="&lt;blockquote style=&quot;margin: 0 0 0 40px; border: none; padding: 0px;&quot;&gt;void func() {&lt;blockquote style=&quot;margin: 0 0 0 40px; border: none; padding: 0px;&quot;&gt;int x = 3000;&lt;/blockquote&gt;&lt;blockquote style=&quot;margin: 0 0 0 40px; border: none; padding: 0px;&quot;&gt;x = x + 3;&amp;nbsp;&lt;/blockquote&gt;&lt;blockquote style=&quot;margin: 0 0 0 40px; border: none; padding: 0px;&quot;&gt;...&lt;/blockquote&gt;&lt;/blockquote&gt;" style="text;html=1;align=left;verticalAlign=middle;whiteSpace=wrap;rounded=0;fontFamily=Lucida Console;fillColor=#f5f5f5;fontColor=#333333;strokeColor=#666666;" vertex="1" parent="1">
          <mxGeometry x="40" y="180" width="230" height="80" as="geometry" />
        </mxCell>
        <mxCell id="8wGgMZ1bW5ZuI7N0N3XO-5" value="&lt;blockquote style=&quot;margin: 0 0 0 40px; border: none; padding: 0px;&quot;&gt;128: movl 0x0(%ebx), %eax ; load&lt;br&gt;132: addl $0x03, %eax ;artimÃ©tica&lt;br&gt;135: movl %eax, 0x0(%ebx) ;store&amp;nbsp;&lt;br&gt;&lt;/blockquote&gt;" style="text;html=1;align=left;verticalAlign=middle;whiteSpace=wrap;rounded=0;fontFamily=Lucida Console;fillColor=#ffe6cc;strokeColor=#d79b00;" vertex="1" parent="1">
          <mxGeometry x="440" y="180" width="310" height="80" as="geometry" />
        </mxCell>
        <mxCell id="8wGgMZ1bW5ZuI7N0N3XO-6" value="&lt;b&gt;Compilador&lt;/b&gt;" style="text;html=1;align=center;verticalAlign=middle;resizable=0;points=[];autosize=1;strokeColor=none;fillColor=none;" vertex="1" parent="1">
          <mxGeometry x="310" y="188" width="90" height="30" as="geometry" />
        </mxCell>
        <mxCell id="8wGgMZ1bW5ZuI7N0N3XO-7" value="(espacio sin uso)" style="rounded=0;whiteSpace=wrap;html=1;fillColor=#f5f5f5;fontColor=#333333;strokeColor=#666666;" vertex="1" parent="1">
          <mxGeometry x="400" y="600" width="120" height="40" as="geometry" />
        </mxCell>
        <mxCell id="8wGgMZ1bW5ZuI7N0N3XO-8" value="Sistema Operativo" style="rounded=0;whiteSpace=wrap;html=1;fillColor=#f8cecc;strokeColor=#b85450;" vertex="1" parent="1">
          <mxGeometry x="400" y="560" width="120" height="40" as="geometry" />
        </mxCell>
        <mxCell id="8wGgMZ1bW5ZuI7N0N3XO-9" value="Proceso" style="rounded=0;whiteSpace=wrap;html=1;fillColor=#dae8fc;strokeColor=#6c8ebf;" vertex="1" parent="1">
          <mxGeometry x="400" y="640" width="120" height="40" as="geometry" />
        </mxCell>
        <mxCell id="8wGgMZ1bW5ZuI7N0N3XO-10" value="(espacio sin uso)" style="rounded=0;whiteSpace=wrap;html=1;fillColor=#f5f5f5;fontColor=#333333;strokeColor=#666666;" vertex="1" parent="1">
          <mxGeometry x="400" y="680" width="120" height="40" as="geometry" />
        </mxCell>
        <mxCell id="8wGgMZ1bW5ZuI7N0N3XO-11" value="Heap" style="rounded=0;whiteSpace=wrap;html=1;fillColor=#fff2cc;strokeColor=#d6b656;" vertex="1" parent="1">
          <mxGeometry x="160" y="600" width="120" height="40" as="geometry" />
        </mxCell>
        <mxCell id="8wGgMZ1bW5ZuI7N0N3XO-12" value="CÃ³digo del programa" style="rounded=0;whiteSpace=wrap;html=1;fillColor=#ffe6cc;strokeColor=#d79b00;" vertex="1" parent="1">
          <mxGeometry x="160" y="560" width="120" height="40" as="geometry" />
        </mxCell>
        <mxCell id="8wGgMZ1bW5ZuI7N0N3XO-13" value="Reservado" style="rounded=0;whiteSpace=wrap;html=1;fillColor=#f5f5f5;fontColor=#333333;strokeColor=#666666;" vertex="1" parent="1">
          <mxGeometry x="160" y="640" width="120" height="40" as="geometry" />
        </mxCell>
        <mxCell id="8wGgMZ1bW5ZuI7N0N3XO-14" value="Stack" style="rounded=0;whiteSpace=wrap;html=1;fillColor=#fff2cc;strokeColor=#d6b656;" vertex="1" parent="1">
          <mxGeometry x="160" y="680" width="120" height="40" as="geometry" />
        </mxCell>
        <mxCell id="8wGgMZ1bW5ZuI7N0N3XO-15" value="0KB" style="text;html=1;align=center;verticalAlign=middle;resizable=0;points=[];autosize=1;strokeColor=none;fillColor=none;" vertex="1" parent="1">
          <mxGeometry x="96" y="545" width="50" height="30" as="geometry" />
        </mxCell>
        <mxCell id="8wGgMZ1bW5ZuI7N0N3XO-16" value="2KB" style="text;html=1;align=center;verticalAlign=middle;resizable=0;points=[];autosize=1;strokeColor=none;fillColor=none;" vertex="1" parent="1">
          <mxGeometry x="96" y="584" width="50" height="30" as="geometry" />
        </mxCell>
        <mxCell id="8wGgMZ1bW5ZuI7N0N3XO-17" value="4KB" style="text;html=1;align=center;verticalAlign=middle;resizable=0;points=[];autosize=1;strokeColor=none;fillColor=none;" vertex="1" parent="1">
          <mxGeometry x="96" y="624" width="50" height="30" as="geometry" />
        </mxCell>
        <mxCell id="8wGgMZ1bW5ZuI7N0N3XO-18" value="14KB" style="text;html=1;align=center;verticalAlign=middle;resizable=0;points=[];autosize=1;strokeColor=none;fillColor=none;" vertex="1" parent="1">
          <mxGeometry x="96" y="662" width="50" height="30" as="geometry" />
        </mxCell>
        <mxCell id="8wGgMZ1bW5ZuI7N0N3XO-19" value="16KB" style="text;html=1;align=center;verticalAlign=middle;resizable=0;points=[];autosize=1;strokeColor=none;fillColor=none;" vertex="1" parent="1">
          <mxGeometry x="96" y="702" width="50" height="30" as="geometry" />
        </mxCell>
        <mxCell id="8wGgMZ1bW5ZuI7N0N3XO-22" value="&lt;div style=&quot;&quot;&gt;&lt;span style=&quot;background-color: initial;&quot;&gt;El &lt;b&gt;programa&lt;/b&gt; cree que tiene su espacio&amp;nbsp;&lt;/span&gt;&lt;/div&gt;&lt;div style=&quot;&quot;&gt;&lt;span style=&quot;background-color: initial;&quot;&gt;de direcciones&amp;nbsp;&lt;/span&gt;&lt;span style=&quot;background-color: initial;&quot;&gt;comenzando en 0 y con&amp;nbsp;&lt;/span&gt;&lt;/div&gt;&lt;div style=&quot;&quot;&gt;&lt;span style=&quot;background-color: initial;&quot;&gt;el extremo en 16KB&lt;/span&gt;&lt;/div&gt;" style="text;html=1;align=center;verticalAlign=middle;resizable=0;points=[];autosize=1;strokeColor=none;fillColor=none;" vertex="1" parent="1">
          <mxGeometry x="90" y="740" width="240" height="60" as="geometry" />
        </mxCell>
        <mxCell id="8wGgMZ1bW5ZuI7N0N3XO-23" value="&lt;u&gt;Memoria fÃ­sica con un proceso&amp;nbsp;&lt;/u&gt;&lt;div&gt;&lt;u&gt;realocalizado.&lt;/u&gt;&lt;/div&gt;" style="text;html=1;align=center;verticalAlign=middle;resizable=0;points=[];autosize=1;strokeColor=none;fillColor=none;" vertex="1" parent="1">
          <mxGeometry x="365" y="740" width="190" height="40" as="geometry" />
        </mxCell>
        <mxCell id="8wGgMZ1bW5ZuI7N0N3XO-24" value="0KB" style="text;html=1;align=center;verticalAlign=middle;resizable=0;points=[];autosize=1;strokeColor=none;fillColor=none;" vertex="1" parent="1">
          <mxGeometry x="524" y="546" width="50" height="30" as="geometry" />
        </mxCell>
        <mxCell id="8wGgMZ1bW5ZuI7N0N3XO-25" value="16KB" style="text;html=1;align=center;verticalAlign=middle;resizable=0;points=[];autosize=1;strokeColor=none;fillColor=none;" vertex="1" parent="1">
          <mxGeometry x="524" y="585" width="50" height="30" as="geometry" />
        </mxCell>
        <mxCell id="8wGgMZ1bW5ZuI7N0N3XO-26" value="32KB" style="text;html=1;align=center;verticalAlign=middle;resizable=0;points=[];autosize=1;strokeColor=none;fillColor=none;" vertex="1" parent="1">
          <mxGeometry x="524" y="625" width="50" height="30" as="geometry" />
        </mxCell>
        <mxCell id="8wGgMZ1bW5ZuI7N0N3XO-27" value="48KB" style="text;html=1;align=center;verticalAlign=middle;resizable=0;points=[];autosize=1;strokeColor=none;fillColor=none;" vertex="1" parent="1">
          <mxGeometry x="524" y="663" width="50" height="30" as="geometry" />
        </mxCell>
        <mxCell id="8wGgMZ1bW5ZuI7N0N3XO-28" value="64KB" style="text;html=1;align=center;verticalAlign=middle;resizable=0;points=[];autosize=1;strokeColor=none;fillColor=none;" vertex="1" parent="1">
          <mxGeometry x="524" y="703" width="50" height="30" as="geometry" />
        </mxCell>
        <mxCell id="8wGgMZ1bW5ZuI7N0N3XO-29" value="" style="endArrow=none;html=1;rounded=0;" edge="1" parent="1">
          <mxGeometry width="50" height="50" relative="1" as="geometry">
            <mxPoint x="300" y="560" as="sourcePoint" />
            <mxPoint x="320" y="560" as="targetPoint" />
          </mxGeometry>
        </mxCell>
        <mxCell id="8wGgMZ1bW5ZuI7N0N3XO-30" value="" style="endArrow=none;html=1;rounded=0;" edge="1" parent="1">
          <mxGeometry width="50" height="50" relative="1" as="geometry">
            <mxPoint x="300" y="719.17" as="sourcePoint" />
            <mxPoint x="320" y="719.17" as="targetPoint" />
          </mxGeometry>
        </mxCell>
        <mxCell id="8wGgMZ1bW5ZuI7N0N3XO-31" value="" style="endArrow=none;html=1;rounded=0;" edge="1" parent="1">
          <mxGeometry width="50" height="50" relative="1" as="geometry">
            <mxPoint x="320" y="720" as="sourcePoint" />
            <mxPoint x="320" y="560" as="targetPoint" />
          </mxGeometry>
        </mxCell>
        <mxCell id="8wGgMZ1bW5ZuI7N0N3XO-32" value="" style="endArrow=classic;html=1;rounded=0;entryX=0;entryY=0.5;entryDx=0;entryDy=0;" edge="1" parent="1" target="8wGgMZ1bW5ZuI7N0N3XO-9">
          <mxGeometry width="50" height="50" relative="1" as="geometry">
            <mxPoint x="320" y="660" as="sourcePoint" />
            <mxPoint x="430" y="710" as="targetPoint" />
          </mxGeometry>
        </mxCell>
      </root>
    </mxGraphModel>
  </diagram>
</mxfile>
